<svg version="1.1" xmlns="http://www.w3.org/2000/svg" width="600" height="600">
    <defs>
        <style>
	  .s_path {
	     fill : #6734eb; /*  #58c8fd; */
	     stroke : yellow;
	     stroke-width : 1px;
	     stroke-linecap : round;
	     stroke-linejoin : round;
	  }
	</style>
    </defs>
    <g>
        <path id="_p_template" class="s_path"></path>
        <path class="s_path" d="M 0 559.8076211353315 L 18.75 527.3316684934151 L 37.5 559.8076211353315 Z"></path>
        <path class="s_path" d="M 37.5 559.8076211353315 L 56.25 527.3316684934151 L 75 559.8076211353315 Z"></path>
        <path class="s_path" d="M 18.75 527.3316684934151 L 37.5 494.85571585149864 L 56.25 527.3316684934151 Z"></path>
        <path class="s_path" d="M 75 559.8076211353315 L 93.75 527.3316684934151 L 112.5 559.8076211353315 Z"></path>
        <path class="s_path" d="M 112.5 559.8076211353315 L 131.25 527.3316684934151 L 150 559.8076211353315 Z"></path>
        <path class="s_path" d="M 93.75 527.3316684934151 L 112.5 494.85571585149864 L 131.25 527.3316684934151 Z"></path>
        <path class="s_path" d="M 37.5 494.85571585149876 L 56.25 462.3797632095823 L 75 494.85571585149876 Z"></path>
        <path class="s_path" d="M 75 494.85571585149876 L 93.75 462.3797632095823 L 112.5 494.85571585149876 Z"></path>
        <path class="s_path" d="M 56.25 462.3797632095823 L 75 429.9038105676658 L 93.75 462.3797632095823 Z"></path>
        <path class="s_path" d="M 150 559.8076211353315 L 168.75 527.3316684934151 L 187.5 559.8076211353315 Z"></path>
        <path class="s_path" d="M 187.5 559.8076211353315 L 206.25 527.3316684934151 L 225 559.8076211353315 Z"></path>
        <path class="s_path" d="M 168.75 527.3316684934151 L 187.5 494.85571585149864 L 206.25 527.3316684934151 Z"></path>
        <path class="s_path" d="M 225 559.8076211353315 L 243.75 527.3316684934151 L 262.5 559.8076211353315 Z"></path>
        <path class="s_path" d="M 262.5 559.8076211353315 L 281.25 527.3316684934151 L 300 559.8076211353315 Z"></path>
        <path class="s_path" d="M 243.75 527.3316684934151 L 262.5 494.85571585149864 L 281.25 527.3316684934151 Z"></path>
        <path class="s_path" d="M 187.5 494.85571585149876 L 206.25 462.3797632095823 L 225 494.85571585149876 Z"></path>
        <path class="s_path" d="M 225 494.85571585149876 L 243.75 462.3797632095823 L 262.5 494.85571585149876 Z"></path>
        <path class="s_path" d="M 206.25 462.3797632095823 L 225 429.9038105676658 L 243.75 462.3797632095823 Z"></path>
        <path class="s_path" d="M 75 429.9038105676658 L 93.75 397.4278579257493 L 112.5 429.9038105676658 Z"></path>
        <path class="s_path" d="M 112.5 429.9038105676658 L 131.25 397.4278579257493 L 150 429.9038105676658 Z"></path>
        <path class="s_path" d="M 93.75 397.4278579257493 L 112.5 364.95190528383284 L 131.25 397.4278579257493 Z"></path>
        <path class="s_path" d="M 150 429.9038105676658 L 168.75 397.4278579257493 L 187.5 429.9038105676658 Z"></path>
        <path class="s_path" d="M 187.5 429.9038105676658 L 206.25 397.4278579257493 L 225 429.9038105676658 Z"></path>
        <path class="s_path" d="M 168.75 397.4278579257493 L 187.5 364.95190528383284 L 206.25 397.4278579257493 Z"></path>
        <path class="s_path" d="M 112.5 364.95190528383296 L 131.25 332.4759526419165 L 150 364.95190528383296 Z"></path>
        <path class="s_path" d="M 150 364.95190528383296 L 168.75 332.4759526419165 L 187.5 364.95190528383296 Z"></path>
        <path class="s_path" d="M 131.25 332.4759526419165 L 150 300 L 168.75 332.4759526419165 Z"></path>
        <path class="s_path" d="M 300 559.8076211353315 L 318.75 527.3316684934151 L 337.5 559.8076211353315 Z"></path>
        <path class="s_path" d="M 337.5 559.8076211353315 L 356.25 527.3316684934151 L 375 559.8076211353315 Z"></path>
        <path class="s_path" d="M 318.75 527.3316684934151 L 337.5 494.85571585149864 L 356.25 527.3316684934151 Z"></path>
        <path class="s_path" d="M 375 559.8076211353315 L 393.75 527.3316684934151 L 412.5 559.8076211353315 Z"></path>
        <path class="s_path" d="M 412.5 559.8076211353315 L 431.25 527.3316684934151 L 450 559.8076211353315 Z"></path>
        <path class="s_path" d="M 393.75 527.3316684934151 L 412.5 494.85571585149864 L 431.25 527.3316684934151 Z"></path>
        <path class="s_path" d="M 337.5 494.85571585149876 L 356.25 462.3797632095823 L 375 494.85571585149876 Z"></path>
        <path class="s_path" d="M 375 494.85571585149876 L 393.75 462.3797632095823 L 412.5 494.85571585149876 Z"></path>
        <path class="s_path" d="M 356.25 462.3797632095823 L 375 429.9038105676658 L 393.75 462.3797632095823 Z"></path>
        <path class="s_path" d="M 450 559.8076211353315 L 468.75 527.3316684934151 L 487.5 559.8076211353315 Z"></path>
        <path class="s_path" d="M 487.5 559.8076211353315 L 506.25 527.3316684934151 L 525 559.8076211353315 Z"></path>
        <path class="s_path" d="M 468.75 527.3316684934151 L 487.5 494.85571585149864 L 506.25 527.3316684934151 Z"></path>
        <path class="s_path" d="M 525 559.8076211353315 L 543.75 527.3316684934151 L 562.5 559.8076211353315 Z"></path>
        <path class="s_path" d="M 562.5 559.8076211353315 L 581.25 527.3316684934151 L 600 559.8076211353315 Z"></path>
        <path class="s_path" d="M 543.75 527.3316684934151 L 562.5 494.85571585149864 L 581.25 527.3316684934151 Z"></path>
        <path class="s_path" d="M 487.5 494.85571585149876 L 506.25 462.3797632095823 L 525 494.85571585149876 Z"></path>
        <path class="s_path" d="M 525 494.85571585149876 L 543.75 462.3797632095823 L 562.5 494.85571585149876 Z"></path>
        <path class="s_path" d="M 506.25 462.3797632095823 L 525 429.9038105676658 L 543.75 462.3797632095823 Z"></path>
        <path class="s_path" d="M 375 429.9038105676658 L 393.75 397.4278579257493 L 412.5 429.9038105676658 Z"></path>
        <path class="s_path" d="M 412.5 429.9038105676658 L 431.25 397.4278579257493 L 450 429.9038105676658 Z"></path>
        <path class="s_path" d="M 393.75 397.4278579257493 L 412.5 364.95190528383284 L 431.25 397.4278579257493 Z"></path>
        <path class="s_path" d="M 450 429.9038105676658 L 468.75 397.4278579257493 L 487.5 429.9038105676658 Z"></path>
        <path class="s_path" d="M 487.5 429.9038105676658 L 506.25 397.4278579257493 L 525 429.9038105676658 Z"></path>
        <path class="s_path" d="M 468.75 397.4278579257493 L 487.5 364.95190528383284 L 506.25 397.4278579257493 Z"></path>
        <path class="s_path" d="M 412.5 364.95190528383296 L 431.25 332.4759526419165 L 450 364.95190528383296 Z"></path>
        <path class="s_path" d="M 450 364.95190528383296 L 468.75 332.4759526419165 L 487.5 364.95190528383296 Z"></path>
        <path class="s_path" d="M 431.25 332.4759526419165 L 450 300 L 468.75 332.4759526419165 Z"></path>
        <path class="s_path" d="M 150 300 L 168.75 267.5240473580835 L 187.5 300 Z"></path>
        <path class="s_path" d="M 187.5 300 L 206.25 267.5240473580835 L 225 300 Z"></path>
        <path class="s_path" d="M 168.75 267.5240473580835 L 187.5 235.04809471616704 L 206.25 267.5240473580835 Z"></path>
        <path class="s_path" d="M 225 300 L 243.75 267.5240473580835 L 262.5 300 Z"></path>
        <path class="s_path" d="M 262.5 300 L 281.25 267.5240473580835 L 300 300 Z"></path>
        <path class="s_path" d="M 243.75 267.5240473580835 L 262.5 235.04809471616704 L 281.25 267.5240473580835 Z"></path>
        <path class="s_path" d="M 187.5 235.0480947161671 L 206.25 202.57214207425062 L 225 235.0480947161671 Z"></path>
        <path class="s_path" d="M 225 235.0480947161671 L 243.75 202.57214207425062 L 262.5 235.0480947161671 Z"></path>
        <path class="s_path" d="M 206.25 202.57214207425068 L 225 170.0961894323342 L 243.75 202.57214207425068 Z"></path>
        <path class="s_path" d="M 300 300 L 318.75 267.5240473580835 L 337.5 300 Z"></path>
        <path class="s_path" d="M 337.5 300 L 356.25 267.5240473580835 L 375 300 Z"></path>
        <path class="s_path" d="M 318.75 267.5240473580835 L 337.5 235.04809471616704 L 356.25 267.5240473580835 Z"></path>
        <path class="s_path" d="M 375 300 L 393.75 267.5240473580835 L 412.5 300 Z"></path>
        <path class="s_path" d="M 412.5 300 L 431.25 267.5240473580835 L 450 300 Z"></path>
        <path class="s_path" d="M 393.75 267.5240473580835 L 412.5 235.04809471616704 L 431.25 267.5240473580835 Z"></path>
        <path class="s_path" d="M 337.5 235.0480947161671 L 356.25 202.57214207425062 L 375 235.0480947161671 Z"></path>
        <path class="s_path" d="M 375 235.0480947161671 L 393.75 202.57214207425062 L 412.5 235.0480947161671 Z"></path>
        <path class="s_path" d="M 356.25 202.57214207425068 L 375 170.0961894323342 L 393.75 202.57214207425068 Z"></path>
        <path class="s_path" d="M 225 170.0961894323342 L 243.75 137.62023679041772 L 262.5 170.0961894323342 Z"></path>
        <path class="s_path" d="M 262.5 170.0961894323342 L 281.25 137.62023679041772 L 300 170.0961894323342 Z"></path>
        <path class="s_path" d="M 243.75 137.62023679041775 L 262.5 105.1442841485013 L 281.25 137.62023679041775 Z"></path>
        <path class="s_path" d="M 300 170.0961894323342 L 318.75 137.62023679041772 L 337.5 170.0961894323342 Z"></path>
        <path class="s_path" d="M 337.5 170.0961894323342 L 356.25 137.62023679041772 L 375 170.0961894323342 Z"></path>
        <path class="s_path" d="M 318.75 137.62023679041775 L 337.5 105.1442841485013 L 356.25 137.62023679041775 Z"></path>
        <path class="s_path" d="M 262.5 105.1442841485013 L 281.25 72.66833150658485 L 300 105.1442841485013 Z"></path>
        <path class="s_path" d="M 300 105.1442841485013 L 318.75 72.66833150658485 L 337.5 105.1442841485013 Z"></path>
        <path class="s_path" d="M 281.25 72.66833150658485 L 300 40.1923788646684 L 318.75 72.66833150658485 Z"></path>
    </g>
</svg>